<svg width="132" height="114" viewBox="0 0 132 114" fill="none" xmlns="http://www.w3.org/2000/svg">
<path d="M102.585 93.5278L37.8806 70.2913M37.8806 70.2913L61.1171 5.58715M37.8806 70.2913L6.22196 85.2197M29.4584 20.5155L94.1626 43.752M94.1626 43.752L70.9261 108.456M94.1626 43.752L125.821 28.8236M106.405 91.0269L127.852 31.306C128.372 29.8564 128.633 29.1317 128.549 28.4767C128.476 27.9007 128.222 27.3626 127.824 26.9395C127.372 26.4585 126.647 26.1983 125.198 25.6778L65.4771 4.23096C64.211 3.77629 63.578 3.54896 62.9309 3.47804C62.3571 3.41518 61.7771 3.44298 61.2121 3.56048C60.5747 3.69298 59.9663 3.97987 58.7496 4.55362L30.1672 18.0314C28.9505 18.6052 28.342 18.8921 27.8343 19.2995C27.3842 19.6607 26.9938 20.0905 26.6773 20.5731C26.3203 21.1175 26.093 21.7505 25.6383 23.0166L4.19147 82.7373C3.67097 84.1867 3.41073 84.9114 3.49393 85.5666C3.56711 86.1427 3.82084 86.6809 4.21879 87.1038C4.67114 87.5847 5.39587 87.845 6.8454 88.3655L66.5663 109.812C67.8319 110.267 68.465 110.494 69.1121 110.565C69.6861 110.628 70.2659 110.6 70.8313 110.483C71.4684 110.35 72.077 110.063 73.2934 109.49L101.876 96.0118C103.093 95.4382 103.701 95.1512 104.209 94.7438C104.659 94.3826 105.05 93.953 105.366 93.4701C105.723 92.9256 105.95 92.2925 106.405 91.0269Z" stroke="#EB18E3" stroke-width="5" stroke-linecap="round" stroke-linejoin="round"/>
</svg>
