<svg width="151" height="167" viewBox="0 0 151 167" fill="none" xmlns="http://www.w3.org/2000/svg">
<path d="M18.7266 26.6653L68.9708 2.28329M18.7266 26.6653L3.01249 61.2177M18.7266 26.6653L27.8468 59.6188M68.9708 2.28329L82.2046 22.308M68.9708 2.28329L109.643 19.1355M82.2046 22.308L42.5635 58.6713M82.2046 22.308L133.122 51.7614M42.5635 58.6713L65.3473 109.978M42.5635 58.6713L27.8468 59.6188M3.01249 61.2177L1.73125 115.578M3.01249 61.2177L27.8468 59.6188M109.643 19.1355L149.235 50.8949M109.643 19.1355L84.205 54.9353M149.235 50.8949L133.122 51.7614M149.235 50.8949L148.757 104.149M133.122 51.7614L121.233 106.611M65.3473 109.978L41.3256 146.76M65.3473 109.978L108.137 107.4M41.3256 146.76L1.73125 115.578M41.3256 146.76L81.8167 164.499M1.73125 115.578L17.6652 115.021M121.233 106.611L131.617 140.027M121.233 106.611L108.137 107.4M148.757 104.149L131.617 140.027M148.757 104.149L108.137 107.4M131.617 140.027L81.8167 164.499M81.8167 164.499L68.4064 144.208M68.4064 144.208L108.137 107.4M68.4064 144.208L17.6652 115.021M108.137 107.4L84.205 54.9353M84.205 54.9353L27.8468 59.6188M27.8468 59.6188L17.6652 115.021" stroke="#5717EB" stroke-width="3"/>
</svg>
