<svg width="132" height="144" viewBox="0 0 132 144" fill="none" xmlns="http://www.w3.org/2000/svg">
<g filter="url(#filter0_d_14_80)">
<path d="M6.09738 49.6277L40.3113 64.745M6.09738 49.6277L21.6521 22.7996M6.09738 49.6277L35.6704 116.107M40.3113 64.745L81.5724 46.3903M40.3113 64.745L70.9405 133.599M81.5724 46.3903L99.3007 20.4913M81.5724 46.3903L112.202 115.244M99.3007 20.4913L64.4699 1.85625M99.3007 20.4913L126.235 85.3006M64.4699 1.85625L21.6521 22.7996M64.4699 1.85625L88.4133 64.2039M21.6521 22.7996L48.0566 82.1564M35.6704 116.107L70.9405 133.599M35.6704 116.107L48.0566 82.1564M70.9405 133.599L112.202 115.244M112.202 115.244L126.235 85.3006M126.235 85.3006L88.4133 64.2039M48.0566 82.1564L88.4133 64.2039" stroke="#6BE53E" stroke-width="3" shape-rendering="crispEdges"/>
</g>
<defs>
<filter id="filter0_d_14_80" x="0.415649" y="0.17145" width="131.459" height="143.085" filterUnits="userSpaceOnUse" color-interpolation-filters="sRGB">
<feFlood flood-opacity="0" result="BackgroundImageFix"/>
<feColorMatrix in="SourceAlpha" type="matrix" values="0 0 0 0 0 0 0 0 0 0 0 0 0 0 0 0 0 0 127 0" result="hardAlpha"/>
<feOffset dy="4"/>
<feGaussianBlur stdDeviation="2"/>
<feComposite in2="hardAlpha" operator="out"/>
<feColorMatrix type="matrix" values="0 0 0 0 0 0 0 0 0 0 0 0 0 0 0 0 0 0 0.25 0"/>
<feBlend mode="normal" in2="BackgroundImageFix" result="effect1_dropShadow_14_80"/>
<feBlend mode="normal" in="SourceGraphic" in2="effect1_dropShadow_14_80" result="shape"/>
</filter>
</defs>
</svg>
